<?xml version="1.0" standalone="no"?><!DOCTYPE svg PUBLIC "-//W3C//DTD SVG 1.1//EN" "http://www.w3.org/Graphics/SVG/1.1/DTD/svg11.dtd"><svg t="1651563201202" class="icon" viewBox="0 0 1024 1024" version="1.1" xmlns="http://www.w3.org/2000/svg" p-id="2949" xmlns:xlink="http://www.w3.org/1999/xlink" width="200" height="200"><defs><style type="text/css"></style></defs><path d="M288.460645 330.313136a36.351245 36.351245 0 0 0-36.703237 36.703237v102.02988a36.703237 36.703237 0 0 0 73.406475 0v-102.02988a36.351245 36.351245 0 0 0-36.703238-36.703237z" p-id="2950"></path><path d="M551.287184 469.046253v-102.02988a36.703237 36.703237 0 1 0-73.406475 0v102.02988a36.703237 36.703237 0 0 0 73.406475 0z" p-id="2951"></path><path d="M767.906682 469.046253v-102.02988a36.703237 36.703237 0 1 0-73.406475 0v102.02988a36.703237 36.703237 0 0 0 73.406475 0z" p-id="2952"></path><path d="M515.303931 0a418.583301 418.583301 0 0 0-265.59448 739.904624 35.663259 35.663259 0 0 0 23.359514 8.815817 34.815276 34.815276 0 0 0 27.727424-13.215726 36.351245 36.351245 0 0 0-4.383909-51.374932A342.744877 342.744877 0 1 1 515.303931 763.392136a34.14329 34.14329 0 0 0-25.599468 11.007771L302.924345 960.844032a37.07123 37.07123 0 0 0 25.599468 63.134688 34.14329 34.14329 0 0 0 25.599468-11.007771L530.631613 836.782611A418.599301 418.599301 0 0 0 515.303931 0z" p-id="2953"></path></svg>